<?xml version="1.0" encoding="UTF-8" standalone="no"?>
<svg
   viewBox="0 0 1000 400"
   height="400"
   width="1000"
   xml:space="preserve"
   id="svg2"
   version="1.1"
   sodipodi:docname="MDClogo.svg"
   inkscape:version="1.4.2 (f4327f4, 2025-05-13)"
   xmlns:inkscape="http://www.inkscape.org/namespaces/inkscape"
   xmlns:sodipodi="http://sodipodi.sourceforge.net/DTD/sodipodi-0.dtd"
   xmlns="http://www.w3.org/2000/svg"
   xmlns:svg="http://www.w3.org/2000/svg"
   xmlns:rdf="http://www.w3.org/1999/02/22-rdf-syntax-ns#"
   xmlns:cc="http://creativecommons.org/ns#"
   xmlns:dc="http://purl.org/dc/elements/1.1/"><sodipodi:namedview
     id="namedview1"
     pagecolor="#ffffff"
     bordercolor="#000000"
     borderopacity="0.25"
     inkscape:showpageshadow="2"
     inkscape:pageopacity="0.0"
     inkscape:pagecheckerboard="0"
     inkscape:deskcolor="#d1d1d1"
     showgrid="false"
     inkscape:zoom="0.625"
     inkscape:cx="628.8"
     inkscape:cy="676.8"
     inkscape:window-width="1920"
     inkscape:window-height="1171"
     inkscape:window-x="-9"
     inkscape:window-y="-9"
     inkscape:window-maximized="1"
     inkscape:current-layer="svg2" /><metadata
     id="metadata8"><rdf:RDF><cc:Work
         rdf:about=""><dc:format>image/svg+xml</dc:format><dc:type
           rdf:resource="http://purl.org/dc/dcmitype/StillImage" /></cc:Work></rdf:RDF></metadata><defs
     id="defs6"><clipPath
       id="clipPath18"
       clipPathUnits="userSpaceOnUse"><path
         id="path16"
         d="M 0,1080 H 1080 V 0 H 0 Z" /></clipPath></defs><g
     transform="matrix(1.3333333,0,0,-1.3333333,-114.45173,1052.96)"
     id="g10"><g
       id="g12"
       transform="translate(0,11.25)"><g
         clip-path="url(#clipPath18)"
         id="g14"
         transform="translate(-74.999999,56.250019)"><g
           transform="translate(418.2388,570.39)"
           id="g20"><path
             id="path22"
             style="fill:#0766ad;fill-opacity:1;fill-rule:nonzero;stroke:none"
             d="m 0,0 c 0,-1.46 -0.03,-2.92 -0.1,-4.37 -2.29,-56.19 -48.72,-101.2 -105.48,-101.2 -56.75,0 -103.18,45.01 -105.47,101.2 -0.07,1.45 -0.1,2.91 -0.1,4.37 0,1.47 0.03,2.93 0.1,4.38 2.29,56.2 48.73,101.2 105.47,101.2 56.75,0 103.19,-45 105.48,-101.2 C -0.03,2.93 0,1.47 0,0 M -105.58,114.33 C -168.62,114.33 -219.9,63.04 -219.9,0 c 0,-63.03 51.28,-114.32 114.32,-114.32 63.04,0 114.33,51.29 114.33,114.32 0,63.04 -51.29,114.33 -114.33,114.33" /></g><g
           transform="translate(259.2322,610.64)"
           id="g24"><path
             id="path26"
             style="fill:#0766ad;fill-opacity:1;fill-rule:nonzero;stroke:none"
             d="m 0,0 c -4.07,0 -7.36,3.3 -7.36,7.36 0,3.15 1.97,5.84 4.74,6.88 0.81,0.32 1.7,0.49 2.62,0.49 2.37,0 4.47,-1.11 5.81,-2.85 C 6.79,10.64 7.37,9.07 7.37,7.36 7.37,3.3 4.07,0 0,0 M 117.02,-35.87 C 116.71,-20.3 114.7,-5.33 111.04,8.7 100.52,49.03 78.44,74.08 53.43,74.08 31.63,74.08 12.07,55.06 0.44,23.47 0.29,23.48 0.15,23.48 0,23.48 c -8.89,0 -16.12,-7.23 -16.12,-16.12 0,-8.88 7.23,-16.11 16.12,-16.11 8.89,0 16.12,7.23 16.12,16.11 0,5.64 -2.91,10.61 -7.3,13.48 10.27,27.46 26.97,44.49 44.61,44.49 20.53,0 39.81,-23.1 49.14,-58.84 3.47,-13.31 5.38,-27.54 5.69,-42.36 0.03,-1.45 0.05,-2.91 0.05,-4.38 0,-2.41 1.96,-4.37 4.38,-4.37 2.42,0 4.38,1.96 4.38,4.37 0,1.47 -0.01,2.93 -0.05,4.38" /></g><g
           transform="translate(317.0386,680.34)"
           id="g28"><path
             id="path30"
             style="fill:#0766ad;fill-opacity:1;fill-rule:nonzero;stroke:none"
             d="M 0,0 V -100.57 H -8.75 V 0 c 0,2.42 1.96,4.38 4.37,4.38 C -1.96,4.38 0,2.42 0,0" /></g><g
           transform="translate(308.2886,561.02)"
           id="g32"><path
             id="path34"
             style="fill:#0766ad;fill-opacity:1;fill-rule:nonzero;stroke:none"
             d="m 0,0 h 8.75 v -100.57 c 0,-2.42 -1.96,-4.38 -4.38,-4.38 -2.41,0 -4.37,1.96 -4.37,4.38 z" /></g><g
           transform="translate(370.3021,521.58)"
           id="g36"><path
             id="path38"
             style="fill:#0766ad;fill-opacity:1;fill-rule:nonzero;stroke:none"
             d="m 0,0 c -1.2,-0.86 -2.67,-1.37 -4.27,-1.37 -1.79,0 -3.43,0.64 -4.7,1.7 -1.63,1.34 -2.67,3.39 -2.67,5.67 0,4.07 3.3,7.36 7.37,7.36 C -0.2,13.36 3.09,10.07 3.09,6 3.09,3.52 1.87,1.33 0,0 m -4.27,22.12 c -8.89,0 -16.12,-7.23 -16.12,-16.12 0,-6.24 3.57,-11.67 8.77,-14.34 -10.11,-29.75 -27.56,-48.42 -46.02,-48.42 -20.52,0 -39.81,23.1 -49.13,58.84 -3.47,13.31 -5.39,27.54 -5.7,42.36 -0.03,1.45 -0.05,2.91 -0.05,4.37 0,2.42 -1.96,4.38 -4.37,4.38 -2.42,0 -4.38,-1.96 -4.38,-4.38 0,-1.46 0.01,-2.92 0.05,-4.37 0.31,-15.56 2.32,-30.54 5.98,-44.57 10.52,-40.33 32.59,-65.38 57.6,-65.38 22.89,0 43.32,20.98 54.68,55.45 8.28,0.66 14.81,7.61 14.81,16.06 0,8.89 -7.23,16.12 -16.12,16.12" /></g><g
           transform="translate(244.0288,570.4)"
           id="g40"><path
             id="path42"
             style="fill:#29adb2;fill-opacity:1;fill-rule:nonzero;stroke:none"
             d="m 0,0 c 0,-1.46 0.01,-2.92 0.05,-4.38 h -31.89 c -0.07,1.45 -0.1,2.91 -0.1,4.38 0,1.46 0.03,2.92 0.1,4.37 H 1.09 C 0.39,3.07 0,1.58 0,0" /></g><g
           transform="translate(363.6284,566.02)"
           id="g44"><path
             id="path46"
             style="fill:#29adb2;fill-opacity:1;fill-rule:nonzero;stroke:none"
             d="m 0,0 h -100.8 c -0.03,1.45 -0.05,2.91 -0.05,4.38 0,1.58 -0.39,3.07 -1.08,4.37 H -1.14 C -1.11,7.3 -1.09,5.84 -1.09,4.38 -1.09,2.8 -0.7,1.3 0,0" /></g><g
           transform="translate(413.1387,574.77)"
           id="g48"><path
             id="path50"
             style="fill:#29adb2;fill-opacity:1;fill-rule:nonzero;stroke:none"
             d="M 0,0 C 0.07,-1.45 0.1,-2.91 0.1,-4.37 0.1,-5.84 0.07,-7.3 0,-8.75 h -32.92 c 0.69,1.3 1.08,2.8 1.08,4.38 0,1.46 -0.01,2.92 -0.05,4.37 z" /></g><g
           transform="translate(523.2537,614.7168)"
           id="g52"><path
             id="path54"
             style="fill:#0766ad;fill-opacity:1;fill-rule:nonzero;stroke:none"
             d="m 0,0 v -62.256 h 6.767 c 23.514,0 35.018,14.887 35.018,31.128 C 41.785,-15.057 30.281,0 6.767,0 Z M -35.357,-92.031 V 29.775 H 7.274 c 43.647,0 70.207,-26.053 70.207,-60.903 0,-35.019 -26.56,-60.903 -70.207,-60.903 z" /></g><g
           transform="translate(656.0477,578.8521)"
           id="g56"><path
             id="path58"
             style="fill:#0766ad;fill-opacity:1;fill-rule:nonzero;stroke:none"
             d="M 0,0 V -56.167 H -33.665 V 67.331 h 0.846 L 27.914,17.255 88.479,67.331 h 1.014 V -56.167 H 55.658 V 0 L 27.914,-22.5 Z" /></g><g
           transform="translate(831.9832,647.0293)"
           id="g60"><path
             id="path62"
             style="fill:#0766ad;fill-opacity:1;fill-rule:nonzero;stroke:none"
             d="m 0,0 c 15.564,0 26.222,-3.553 34.681,-7.952 v -32.143 c -6.598,3.384 -16.917,7.782 -31.128,7.782 -21.655,0 -32.99,-15.056 -32.99,-31.127 0,-16.411 10.998,-31.129 31.128,-31.129 15.396,0 26.73,4.23 33.835,7.782 v -32.481 c -8.458,-4.398 -22.5,-7.613 -37.217,-7.613 -36.542,0 -63.272,28.083 -63.272,63.441 C -64.963,-28.591 -38.233,0 0,0" /></g><g
           transform="translate(496.534,485.0488)"
           id="g64"><path
             id="path66"
             style="fill:#29adb2;fill-opacity:1;fill-rule:nonzero;stroke:none"
             d="m 0,0 c 4.455,0 7.665,3.459 7.665,8.008 0,4.519 -3.21,8.008 -7.665,8.008 -4.456,0 -7.696,-3.489 -7.696,-8.008 C -7.696,3.459 -4.456,0 0,0 m 0,19.631 c 6.574,0 11.622,-5.078 11.622,-11.623 C 11.622,1.465 6.668,-3.613 0,-3.613 c -6.637,0 -11.622,5.078 -11.622,11.621 0,6.451 4.985,11.623 11.622,11.623" /></g><g
           transform="translate(513.2381,497.4199)"
           id="g68"><path
             id="path70"
             style="fill:#29adb2;fill-opacity:1;fill-rule:nonzero;stroke:none"
             d="M 0,0 V 4.674 H 3.677 V 0 H 8.101 V -3.023 H 3.677 v -7.135 c 0,-1.932 0.997,-2.586 2.149,-2.586 0.966,0 2.026,0.312 2.805,0.654 v -3.178 c -0.717,-0.375 -2.057,-0.716 -3.739,-0.716 -2.369,0 -4.737,1.152 -4.923,4.517 0,0.498 -0.031,1.029 -0.031,1.559 v 6.885 H -2.431 V 0 Z" /></g><g
           transform="translate(537.574,489.6309)"
           id="g72"><path
             id="path74"
             style="fill:#29adb2;fill-opacity:1;fill-rule:nonzero;stroke:none"
             d="m 0,0 c 0,2.928 -1.932,4.953 -4.549,4.953 -2.587,0 -4.55,-2.025 -4.55,-4.953 0,-2.93 1.963,-4.955 4.55,-4.955 C -1.932,-4.955 0,-2.93 0,0 m 3.614,0 c 0,-4.705 -3.427,-8.195 -8.163,-8.195 -4.705,0 -8.164,3.49 -8.164,8.195 0,4.703 3.459,8.193 8.164,8.193 4.736,0 8.163,-3.49 8.163,-8.193" /></g><g
           transform="translate(549.6336,497.4199)"
           id="g76"><path
             id="path78"
             style="fill:#29adb2;fill-opacity:1;fill-rule:nonzero;stroke:none"
             d="m 0,0 0.094,-1.994 c 0,-0.592 -0.125,-0.998 -0.125,-1.123 h 0.062 c 0.748,1.871 2.742,3.334 5.048,3.459 0.529,0.031 1.059,0 1.558,-0.125 1.651,-0.342 2.96,-1.401 3.459,-3.147 1.09,1.838 3.052,3.334 5.328,3.334 3.645,0 5.421,-2.181 5.421,-6.23 v -9.754 h -3.801 v 9.16 c 0,1.84 -0.53,3.365 -2.462,3.365 -2.991,0 -4.019,-2.771 -4.019,-5.513 V -15.58 H 6.762 v 9.16 c 0,1.777 -0.374,3.365 -2.4,3.365 -2.928,0 -4.082,-2.74 -4.082,-5.513 V -15.58 H -3.521 V 0 Z" /></g><g
           transform="translate(584.5965,488.6953)"
           id="g80"><path
             id="path82"
             style="fill:#29adb2;fill-opacity:1;fill-rule:nonzero;stroke:none"
             d="m 0,0 c -4.269,0.686 -6.075,-0.529 -6.075,-2.307 0,-1.183 0.841,-1.994 2.149,-1.994 C -1.683,-4.301 0,-2.182 0,0 m -8.631,8.008 c 0.873,0.467 2.96,1.121 5.609,1.121 4.612,0 6.886,-2.211 6.886,-6.108 V -6.855 H 0.405 l -0.062,1.621 c -0.031,0.716 0.062,1.183 0.062,1.183 H 0.343 c -0.281,-0.685 -1.932,-3.209 -5.11,-3.209 -2.773,0 -4.954,1.651 -4.954,4.643 0,3.832 3.77,5.701 9.815,4.861 v 0.592 c 0,2.273 -1.434,3.053 -3.708,3.053 -2.057,0 -4.02,-0.686 -5.017,-1.309 z" /></g><g
           transform="translate(597.7781,488.2598)"
           id="g84"><path
             id="path86"
             style="fill:#29adb2;fill-opacity:1;fill-rule:nonzero;stroke:none"
             d="m 0,0 c -2.835,0.871 -4.829,2.055 -4.829,4.984 0,2.743 2.306,4.58 5.765,4.58 1.962,0 3.707,-0.498 4.704,-0.933 V 5.297 C 4.581,5.857 3.022,6.355 1.621,6.418 1.091,6.418 0.562,6.387 0.094,6.293 -0.686,6.074 -1.34,5.639 -1.34,4.828 -1.34,3.832 -0.404,3.303 1.496,2.74 4.924,1.682 6.575,0.467 6.575,-2.244 c 0,-2.93 -2.399,-4.58 -6.045,-4.58 -2.212,0 -4.019,0.498 -5.204,1.027 V -2.4 c 1.496,-0.78 3.615,-1.371 5.111,-1.371 1.371,0 2.648,0.437 2.648,1.621 0,1.089 -1.06,1.527 -3.085,2.15" /></g><g
           transform="translate(606.8787,478.1641)"
           id="g88"><path
             id="path90"
             style="fill:#29adb2;fill-opacity:1;fill-rule:nonzero;stroke:none"
             d="m 0,0 c 0.312,-0.094 0.936,-0.25 1.776,-0.25 2.244,0 3.397,1.715 4.425,4.02 l -6.45,15.486 H 3.896 L 5.89,13.74 c 0.778,-2.088 1.557,-4.207 2.243,-6.293 0.56,1.309 1.651,4.735 2.243,6.293 l 1.963,5.516 h 4.144 L 10.407,4.082 C 8.631,-0.344 6.699,-2.836 3.646,-3.428 2.991,-3.521 2.368,-3.553 1.745,-3.521 0.997,-3.521 0.312,-3.396 0,-3.271 Z" /></g><g
           transform="translate(638.0086,489.6309)"
           id="g92"><path
             id="path94"
             style="fill:#29adb2;fill-opacity:1;fill-rule:nonzero;stroke:none"
             d="m 0,0 c 0,2.928 -1.932,4.953 -4.549,4.953 -2.587,0 -4.55,-2.025 -4.55,-4.953 0,-2.93 1.963,-4.955 4.55,-4.955 C -1.932,-4.955 0,-2.93 0,0 m 3.614,0 c 0,-4.705 -3.427,-8.195 -8.163,-8.195 -4.705,0 -8.164,3.49 -8.164,8.195 0,4.703 3.459,8.193 8.164,8.193 4.736,0 8.163,-3.49 8.163,-8.193" /></g><g
           transform="translate(650.0692,497.4199)"
           id="g96"><path
             id="path98"
             style="fill:#29adb2;fill-opacity:1;fill-rule:nonzero;stroke:none"
             d="m 0,0 0.094,-1.994 c 0,-0.592 -0.125,-0.998 -0.125,-1.123 h 0.062 c 0.623,1.433 2.68,3.521 5.64,3.521 3.677,0 5.391,-2.211 5.391,-6.23 V -15.58 H 7.26 v 9.1 c 0,1.806 -0.437,3.425 -2.555,3.425 -2.586,0 -4.425,-2.056 -4.425,-4.797 V -15.58 H -3.521 V 0 Z" /></g><g
           transform="translate(684.4715,500.9707)"
           id="g100"><path
             id="path102"
             style="fill:#29adb2;fill-opacity:1;fill-rule:nonzero;stroke:none"
             d="M 0,0 V -19.131 H -3.927 V 0 H -10.47 V 3.303 H 6.543 V 0 Z" /></g><g
           transform="translate(698.993,494.7715)"
           id="g104"><path
             id="path106"
             style="fill:#29adb2;fill-opacity:1;fill-rule:nonzero;stroke:none"
             d="M 0,0 C -2.243,0 -3.583,-1.746 -3.771,-3.709 H 3.521 C 3.552,-1.746 2.337,0 0,0 m 7.197,-4.238 c 0,-0.717 -0.093,-1.403 -0.093,-1.682 H -3.771 c 0.094,-2.617 1.963,-4.176 4.831,-4.176 2.18,0 4.455,0.655 5.514,1.309 v -3.334 c -1.09,-0.592 -3.178,-1.215 -5.795,-1.215 -5.173,0 -8.507,3.397 -8.507,8.195 0,4.704 3.397,8.194 7.79,8.194 4.674,0 7.135,-3.428 7.135,-7.291" /></g><g
           transform="translate(719.9647,490.877)"
           id="g108"><path
             id="path110"
             style="fill:#29adb2;fill-opacity:1;fill-rule:nonzero;stroke:none"
             d="M 0,0 5.826,-9.037 H 1.495 L -2.898,-1.994 -5.173,-4.52 V -9.037 H -8.911 V 13.396 H -5.11 V -0.562 l 6.107,7.105 h 4.424 z" /></g><g
           transform="translate(733.6141,497.4199)"
           id="g112"><path
             id="path114"
             style="fill:#29adb2;fill-opacity:1;fill-rule:nonzero;stroke:none"
             d="m 0,0 0.094,-1.994 c 0,-0.592 -0.125,-0.998 -0.125,-1.123 h 0.062 c 0.623,1.433 2.68,3.521 5.64,3.521 3.677,0 5.391,-2.211 5.391,-6.23 V -15.58 H 7.26 v 9.1 c 0,1.806 -0.437,3.425 -2.555,3.425 -2.586,0 -4.425,-2.056 -4.425,-4.797 V -15.58 H -3.521 V 0 Z" /></g><g
           transform="translate(761.908,489.6309)"
           id="g116"><path
             id="path118"
             style="fill:#29adb2;fill-opacity:1;fill-rule:nonzero;stroke:none"
             d="m 0,0 c 0,2.928 -1.932,4.953 -4.549,4.953 -2.587,0 -4.55,-2.025 -4.55,-4.953 0,-2.93 1.963,-4.955 4.55,-4.955 C -1.932,-4.955 0,-2.93 0,0 m 3.614,0 c 0,-4.705 -3.427,-8.195 -8.163,-8.195 -4.705,0 -8.164,3.49 -8.164,8.195 0,4.703 3.459,8.193 8.164,8.193 4.736,0 8.163,-3.49 8.163,-8.193" /></g><g
           transform="translate(770.1053,504.2734)"
           id="g120"><path
             id="path122"
             style="fill:#29adb2;fill-opacity:1;fill-rule:nonzero;stroke:none"
             d="m 0,0 h 3.801 v -17.385 c 0,-1.558 0.56,-2.15 1.682,-2.15 0.623,0 1.215,0.156 1.465,0.25 v -3.18 C 6.637,-22.59 5.701,-22.838 4.424,-22.838 1.932,-22.838 0,-21.561 0,-18.195 Z" /></g><g
           transform="translate(792.8201,489.6309)"
           id="g124"><path
             id="path126"
             style="fill:#29adb2;fill-opacity:1;fill-rule:nonzero;stroke:none"
             d="m 0,0 c 0,2.928 -1.932,4.953 -4.549,4.953 -2.587,0 -4.55,-2.025 -4.55,-4.953 0,-2.93 1.963,-4.955 4.55,-4.955 C -1.932,-4.955 0,-2.93 0,0 m 3.614,0 c 0,-4.705 -3.427,-8.195 -8.163,-8.195 -4.705,0 -8.164,3.49 -8.164,8.195 0,4.703 3.459,8.193 8.164,8.193 4.736,0 8.163,-3.49 8.163,-8.193" /></g><g
           transform="translate(803.2606,504.0566)"
           id="g128"><path
             id="path130"
             style="fill:#29adb2;fill-opacity:1;fill-rule:nonzero;stroke:none"
             d="m 0,0 c 1.309,0 2.212,-0.842 2.212,-2.15 0,-1.278 -0.903,-2.12 -2.212,-2.12 -1.34,0 -2.213,0.842 -2.213,2.12 C -2.213,-0.842 -1.34,0 0,0 m 1.9,-23.898 c 0,-3.584 -1.994,-5.579 -5.514,-5.579 -0.842,0 -1.62,0.125 -1.933,0.282 v 3.302 c 0.219,-0.093 0.654,-0.156 1.122,-0.156 1.558,0 2.525,0.967 2.525,2.774 v 16.638 h 3.8 z" /></g><path
           id="path132"
           style="fill:#29adb2;fill-opacity:1;fill-rule:nonzero;stroke:none"
           d="m 815.164,481.84 h -3.802 v 15.58 h 3.802 z m -1.901,22.217 c 1.309,0 2.212,-0.842 2.212,-2.151 0,-1.277 -0.903,-2.119 -2.212,-2.119 -1.339,0 -2.212,0.842 -2.212,2.119 0,1.309 0.873,2.151 2.212,2.151" /><g
           transform="translate(821.3348,504.2734)"
           id="g134"><path
             id="path136"
             style="fill:#29adb2;fill-opacity:1;fill-rule:nonzero;stroke:none"
             d="m 0,0 h 3.801 v -17.385 c 0,-1.558 0.56,-2.15 1.682,-2.15 0.623,0 1.215,0.156 1.465,0.25 v -3.18 C 6.637,-22.59 5.701,-22.838 4.424,-22.838 1.932,-22.838 0,-21.561 0,-18.195 Z" /></g><g
           transform="translate(839.0643,494.7715)"
           id="g138"><path
             id="path140"
             style="fill:#29adb2;fill-opacity:1;fill-rule:nonzero;stroke:none"
             d="M 0,0 C -2.243,0 -3.583,-1.746 -3.771,-3.709 H 3.521 C 3.552,-1.746 2.337,0 0,0 m 7.197,-4.238 c 0,-0.717 -0.093,-1.403 -0.093,-1.682 H -3.771 c 0.094,-2.617 1.963,-4.176 4.831,-4.176 2.18,0 4.455,0.655 5.514,1.309 v -3.334 c -1.091,-0.592 -3.178,-1.215 -5.795,-1.215 -5.173,0 -8.507,3.397 -8.507,8.195 0,4.704 3.397,8.194 7.79,8.194 4.674,0 7.135,-3.428 7.135,-7.291" /></g><g
           transform="translate(850.9695,497.4199)"
           id="g142"><path
             id="path144"
             style="fill:#29adb2;fill-opacity:1;fill-rule:nonzero;stroke:none"
             d="m 0,0 h 3.489 c 0.032,-0.623 0.063,-1.246 0.063,-1.838 0,-0.531 -0.031,-0.967 0,-1.092 0.966,1.901 2.587,3.334 4.736,3.334 0.468,0 0.872,-0.062 0.966,-0.093 v -3.676 c -0.094,0 -0.437,0.125 -0.935,0.125 -2.679,0 -4.517,-2.711 -4.517,-5.641 V -15.58 H 0 Z" /></g><path
           id="path146"
           style="fill:#29adb2;fill-opacity:1;fill-rule:nonzero;stroke:none"
           d="m 868.326,481.84 h -3.802 v 15.58 h 3.802 z m -1.9,22.217 c 1.308,0 2.212,-0.842 2.212,-2.151 0,-1.277 -0.904,-2.119 -2.212,-2.119 -1.34,0 -2.213,0.842 -2.213,2.119 0,1.309 0.873,2.151 2.213,2.151" /><g
           transform="translate(873.7459,648.4224)"
           id="g148"><path
             id="path150"
             style="fill:#0766ad;fill-opacity:1;fill-rule:nonzero;stroke:none"
             d="m 0,0 v -2.242 h 1.008 c 0.91,0 1.382,0.341 1.382,1.121 C 2.39,-0.341 1.918,0 1.008,0 Z m 0,-5.655 h -1.04 v 6.598 h 2.194 c 1.366,0 2.325,-0.845 2.325,-2.064 0,-0.878 -0.521,-1.544 -1.35,-1.82 L 3.543,-5.655 H 2.422 L 1.154,-3.104 H 0 Z m 1.154,-1.739 c 2.746,0 4.908,2.194 4.908,5.021 0,2.812 -2.162,5.022 -4.908,5.022 -2.714,0 -4.842,-2.21 -4.842,-5.022 0,-2.827 2.128,-5.021 4.842,-5.021 m 0,11.067 c 3.299,0 5.948,-2.665 5.948,-6.046 0,-3.396 -2.649,-6.044 -5.948,-6.044 -3.266,0 -5.883,2.648 -5.883,6.044 0,3.381 2.617,6.046 5.883,6.046" /></g></g></g></g></svg>
